<?xml version="1.0" encoding="UTF-8" standalone="no"?>
<!-- Created with Inkscape (http://www.inkscape.org/) -->

<svg
   xmlns:dc="http://purl.org/dc/elements/1.1/"
   xmlns:cc="http://creativecommons.org/ns#"
   xmlns:rdf="http://www.w3.org/1999/02/22-rdf-syntax-ns#"
   xmlns:svg="http://www.w3.org/2000/svg"
   xmlns="http://www.w3.org/2000/svg"
   xmlns:sodipodi="http://sodipodi.sourceforge.net/DTD/sodipodi-0.dtd"
   xmlns:inkscape="http://www.inkscape.org/namespaces/inkscape"
   version="1.1"
   id="svg3713"
   xml:space="preserve"
   width="185.59511"
   height="31.585144"
   viewBox="0 0 185.59511 31.585145"
   sodipodi:docname="logo.svg"
   inkscape:version="0.92.4 (5da689c313, 2019-01-14)"><metadata
     id="metadata3719"><rdf:RDF><cc:Work
         rdf:about=""><dc:format>image/svg+xml</dc:format><dc:type
           rdf:resource="http://purl.org/dc/dcmitype/StillImage" /><dc:title /></cc:Work></rdf:RDF></metadata><defs
     id="defs3717"><clipPath
       clipPathUnits="userSpaceOnUse"
       id="clipPath3729"><path
         d="M 0,99.213 H 226.773 V 0 H 0 Z"
         id="path3727"
         inkscape:connector-curvature="0" /></clipPath></defs><sodipodi:namedview
     pagecolor="#ffffff"
     bordercolor="#666666"
     borderopacity="1"
     objecttolerance="10"
     gridtolerance="10"
     guidetolerance="10"
     inkscape:pageopacity="0"
     inkscape:pageshadow="2"
     inkscape:window-width="3840"
     inkscape:window-height="2035"
     id="namedview3715"
     showgrid="false"
     inkscape:zoom="12.104615"
     inkscape:cx="52.317788"
     inkscape:cy="15.792202"
     inkscape:window-x="-13"
     inkscape:window-y="-13"
     inkscape:window-maximized="1"
     inkscape:current-layer="g3721" /><g
     id="g3721"
     inkscape:groupmode="layer"
     inkscape:label="CHATAU DES HOSPITALIER"
     transform="matrix(1.3333333,0,0,-1.3333333,-58.383791,81.93461)"><g
       id="g3723"
       style="fill:#f9f9f9;stroke:#000000;opacity:0.91;stroke-width:0.17475;stroke-miterlimit:4;stroke-dasharray:none"><g
         id="g3725"
         clip-path="url(#clipPath3729)"
         style="fill:#f9f9f9;stroke:#000000;stroke-width:0.17475;stroke-miterlimit:4;stroke-dasharray:none"><g
           id="g3731"
           transform="translate(52.6323,58.3647)"
           style="fill:#f9f9f9;stroke:#000000;stroke-width:0.17475;stroke-miterlimit:4;stroke-dasharray:none"><path
             d="m 0,0 c 0.099,-0.186 0.183,-0.512 0.032,-0.69 -2.229,-1.521 -4.115,-4.123 -5.559,-6.41 -0.97,-1.636 -1.601,-3.354 -1.714,-5.277 l 0.116,-0.074 c 3.158,1.045 5.609,3.529 8.096,5.931 -0.08,2.24 -0.076,4.488 -0.239,6.721 0.329,0.055 0.847,0.155 1.096,-0.157 0.574,-0.562 0.27,-1.558 0.387,-2.269 0.033,-1.051 -0.073,-2.087 0.048,-3.186 l 0.634,0.719 c 0.675,-0.109 1.669,0.587 2.042,-0.214 0.464,-3.179 1.99,-5.795 2.879,-8.744 0.201,-0.731 0.221,-1.617 0.313,-2.387 -0.131,-0.093 -0.176,0.124 -0.266,0.2 -2.05,2.905 -3.304,6.239 -4.508,9.631 -1.821,-1.736 -0.58,-4.266 -0.587,-6.486 -0.528,-0.294 -1.053,0.327 -1.544,0.563 -0.088,1.684 -0.137,3.567 -0.285,5.302 -2.051,-2.616 -4.055,-6.141 -7.312,-7.003 -0.985,-0.138 -1.744,0.629 -2.275,1.332 -0.542,1.481 0.142,2.898 0.668,4.219 1.596,3.076 3.987,5.97 6.36,8.723 C -1.044,0.549 -0.398,0.438 0,0"
             style="fill:#f9f9f9;fill-opacity:1;fill-rule:nonzero;stroke:#000000;stroke-width:0.17475;stroke-miterlimit:4;stroke-dasharray:none"
             id="path3733"
             inkscape:connector-curvature="0" /></g><g
           id="g3735"
           transform="translate(63.0576,58.0986)"
           style="fill:#f9f9f9;stroke:#000000;stroke-width:0.17475;stroke-miterlimit:4;stroke-dasharray:none"><path
             d="m 0,0 c 0.38,-1.045 1.511,-1.677 1.888,-2.693 -0.804,0.223 -1.564,0.944 -2.339,1.49 -0.362,-0.875 -1.181,-1.177 -2.049,-1.252 -0.651,0.12 -1.3,0.239 -1.909,0.537 1.154,-0.222 2.099,0.994 2.633,1.913 C -1.125,-0.125 -0.576,0.271 0,0"
             style="fill:#f9f9f9;fill-opacity:1;fill-rule:nonzero;stroke:#000000;stroke-width:0.17475;stroke-miterlimit:4;stroke-dasharray:none"
             id="path3737"
             inkscape:connector-curvature="0" /></g><g
           id="g3739"
           transform="translate(63.2202,54.1235)"
           style="fill:#f9f9f9;stroke:#000000;stroke-width:0.17475;stroke-miterlimit:4;stroke-dasharray:none"><path
             d="m 0,0 c 0.026,-0.639 -0.61,-1.042 -0.764,-1.638 -0.585,-1.331 -0.928,-2.786 -1.006,-4.248 0.655,1.19 1.005,2.559 1.54,3.799 -0.133,0.192 0.021,0.439 0.189,0.511 0.35,0.001 0.677,0.262 1.092,0.18 C 1.643,-3.909 1.869,-6.569 3.127,-8.702 3.2,-8.872 3.193,-9.135 3.204,-9.25 2.929,-9.448 2.544,-9.365 2.269,-9.213 l -0.383,0.376 c -0.637,1.342 -1.22,2.72 -1.605,4.172 L 0.193,-4.672 c -0.484,-1.147 -0.757,-2.394 -1.122,-3.589 -0.177,-0.307 -0.551,-0.367 -0.85,-0.278 -0.773,0.199 -1.067,0.902 -1.241,1.585 -0.343,2.678 0.585,5.117 1.943,7.299 C -0.684,0.175 -0.239,0.417 0,0"
             style="fill:#f9f9f9;fill-opacity:1;fill-rule:nonzero;stroke:#000000;stroke-width:0.17475;stroke-miterlimit:4;stroke-dasharray:none"
             id="path3741"
             inkscape:connector-curvature="0" /></g><g
           id="g3743"
           transform="translate(75.2959,54.1323)"
           style="fill:#f9f9f9;stroke:#000000;stroke-width:0.17475;stroke-miterlimit:4;stroke-dasharray:none"><path
             d="m 0,0 c -0.741,-0.757 -1.007,-1.861 -1.235,-2.769 l 0.902,0.466 c 0.51,0.542 0.761,1.174 0.731,1.865 C 0.489,-0.208 0.339,0.25 0,0 m -7.253,4.381 c 0.341,-1.414 0.383,-2.88 0.45,-4.316 L -3.497,0.65 -3.67,0.413 -6.831,-1.242 c 0.063,-2.381 0.375,-4.739 1.48,-6.642 0.276,-0.311 0.59,-0.728 1.014,-0.83 1.065,-0.131 1.485,0.816 2.028,1.611 -1.464,2.537 -0.615,5.606 0.689,7.881 0.412,0.7 1.239,0.105 1.93,0.468 0.413,0.036 0.944,-0.002 1.226,-0.394 0.401,-1.131 0.6,-2.474 -0.293,-3.41 -0.639,-0.636 -1.509,-0.85 -2.451,-0.846 -0.253,-0.631 -0.217,-1.377 -0.181,-2.123 0.155,-0.848 0.584,-1.643 1.319,-2.135 0.837,0.265 1.258,1.189 1.867,1.85 l 1.53,2.239 C 3.553,-2 4.436,-0.623 5.202,0.802 5.681,1.37 6.261,0.753 6.859,0.888 7.647,0.095 6.147,-0.199 5.93,-0.911 4.778,-2.368 4.342,-4.097 4.299,-5.875 c 0.82,1.456 1.32,3.079 1.937,4.629 0.045,0.115 -0.164,0.292 0.075,0.423 0.438,0.065 0.906,0.105 1.406,0.119 C 7.962,-0.988 7.776,-1.42 7.892,-1.798 8.006,-4.119 8.18,-6.49 9.119,-8.407 9.088,-8.687 8.772,-8.576 8.631,-8.532 7.507,-8.044 7.37,-6.753 6.978,-5.732 L 6.66,-3.955 6.489,-4.22 C 5.993,-5.566 5.3,-6.873 4.861,-8.242 4.389,-8.559 3.884,-8.16 3.476,-7.944 2.954,-7.017 2.986,-5.765 3.093,-4.73 2.518,-5.806 2.279,-7.241 1.393,-8.231 c -0.762,-0.51 -1.658,-0.087 -2.417,0.044 -0.455,0.127 -0.932,0.504 -1.214,0.895 -0.359,-0.668 -0.22,-1.678 -1.115,-1.92 -1.081,-0.315 -2.154,-0.101 -2.993,0.632 -1.766,1.848 -2.099,4.455 -2.298,7.128 -0.835,0.04 -1.651,0.165 -2.26,0.807 0.674,-0.082 1.49,-0.234 2.211,0.105 l 0.09,4.806 c 0.069,0.172 -0.322,0.195 -0.092,0.436 0.501,-0.013 1.129,0.096 1.442,-0.321"
             style="fill:#f9f9f9;fill-opacity:1;fill-rule:nonzero;stroke:#000000;stroke-width:0.17475;stroke-miterlimit:4;stroke-dasharray:none"
             id="path3745"
             inkscape:connector-curvature="0" /></g><g
           id="g3747"
           transform="translate(86.0869,54.1099)"
           style="fill:#f9f9f9;stroke:#000000;stroke-width:0.17475;stroke-miterlimit:4;stroke-dasharray:none"><path
             d="M 0,0 C 0.498,-1.927 0.447,-3.957 0.591,-5.969 L 0.65,-6.02 2.229,-1.087 c 0.006,0.251 -0.166,0.653 0.213,0.74 0.499,0.014 1.003,0.28 1.383,0.062 -0.144,-1.899 -0.096,-4.086 0.503,-5.922 0.339,-1.051 1.147,-2.065 2.235,-2.471 0.85,-0.207 1.68,0.142 2.336,0.586 C 8.498,-8.598 8.04,-9.081 7.411,-9.19 5.794,-9.411 4.353,-8.452 3.544,-7.105 3.155,-6.444 2.979,-5.682 2.699,-4.986 2.163,-6.196 2.205,-7.663 1.56,-8.881 c -0.535,-0.241 -1.114,0.043 -1.652,0.163 -0.53,0.372 -0.594,1.115 -0.76,1.766 -0.312,2.36 -0.382,4.822 -0.613,7.216 -0.031,0.053 -0.11,-0.009 -0.14,0.016 l 0.151,0.179 C -0.947,0.363 -0.318,0.473 0,0"
             style="fill:#f9f9f9;fill-opacity:1;fill-rule:nonzero;stroke:#000000;stroke-width:0.17475;stroke-miterlimit:4;stroke-dasharray:none"
             id="path3749"
             inkscape:connector-curvature="0" /></g><g
           id="g3751"
           transform="translate(148.0371,60.4839)"
           style="fill:#f9f9f9;stroke:#000000;stroke-width:0.17475;stroke-miterlimit:4;stroke-dasharray:none"><path
             d="m 0,0 c 0.029,-0.373 -0.172,-0.687 -0.4,-0.975 -0.545,-0.516 -1.319,-0.544 -1.92,-0.974 0.228,0.831 0.687,1.662 0.658,2.637 l -0.315,0.229 c 0.516,0.172 1.061,-0.143 1.547,-0.286 z"
             style="fill:#f9f9f9;fill-opacity:1;fill-rule:nonzero;stroke:#000000;stroke-width:0.17475;stroke-miterlimit:4;stroke-dasharray:none"
             id="path3753"
             inkscape:connector-curvature="0" /></g><g
           id="g3755"
           transform="translate(151.9355,59.0513)"
           style="fill:#f9f9f9;stroke:#000000;stroke-width:0.17475;stroke-miterlimit:4;stroke-dasharray:none"><path
             d="m 0,0 c 0.115,-1.347 -0.373,-2.551 -0.4,-3.899 0.802,-0.086 1.576,0.029 2.322,0.172 L 1.979,-3.784 C 1.547,-4.185 0.889,-4.528 0.459,-5.016 l -1.031,-0.2 C -1.088,-9 -2.236,-14.502 1.893,-16.652 c 3.496,-1.663 7.623,-0.286 10.259,2.15 -1.92,-2.293 -4.527,-3.755 -7.566,-3.526 -2.924,0.2 -5.99,2.15 -6.965,5.072 -0.83,2.351 -0.486,5.274 -0.172,7.768 -0.4,0 -1.117,0.115 -1.461,0.029 -0.115,-2.379 -0.343,-4.701 -0.459,-7.08 -0.027,-0.2 -0.201,-0.373 -0.4,-0.429 -0.66,0.142 -1.205,0.63 -1.721,1.117 0.401,2.351 0.516,4.929 0.545,7.423 -0.029,0.115 -0.287,0.086 -0.144,0.229 0.66,0.115 1.205,-0.314 1.863,-0.372 l 1.949,0.172 0.66,5.446 -0.174,0.143 C -1.146,1.231 -0.314,0.831 0,0"
             style="fill:#f9f9f9;fill-opacity:1;fill-rule:nonzero;stroke:#000000;stroke-width:0.17475;stroke-miterlimit:4;stroke-dasharray:none"
             id="path3757"
             inkscape:connector-curvature="0" /></g><g
           id="g3759"
           transform="translate(160.8379,58.0923)"
           style="fill:#f9f9f9;stroke:#000000;stroke-width:0.17475;stroke-miterlimit:4;stroke-dasharray:none"><path
             d="m 0,0 c 1.125,-3.736 -0.805,-7.364 0.545,-11.055 0.182,-0.502 0.543,-1.05 1.103,-1.236 0.668,-0.092 1.364,0.193 1.913,0.552 l 0.031,-0.054 c -0.358,-0.575 -0.922,-1.079 -1.67,-1.081 -1.012,0.094 -2.018,0.45 -2.664,1.374 -2.147,3.572 -0.653,8.028 -0.641,11.911 -0.01,0.142 -0.263,0.094 -0.133,0.248 C -0.965,0.586 -0.334,0.606 0,0"
             style="fill:#f9f9f9;fill-opacity:1;fill-rule:nonzero;stroke:#000000;stroke-width:0.17475;stroke-miterlimit:4;stroke-dasharray:none"
             id="path3761"
             inkscape:connector-curvature="0" /></g><g
           id="g3763"
           transform="translate(165.3262,57.0801)"
           style="fill:#f9f9f9;stroke:#000000;stroke-width:0.17475;stroke-miterlimit:4;stroke-dasharray:none"><path
             d="m 0,0 c 0.174,-0.258 -0.027,-0.545 -0.113,-0.774 -0.459,-0.43 -1.205,-0.172 -1.692,0.057 -0.343,0.402 -0.144,1.061 -0.287,1.576 C -1.318,0.745 -0.457,0.774 0,0"
             style="fill:#f9f9f9;fill-opacity:1;fill-rule:nonzero;stroke:#000000;stroke-width:0.17475;stroke-miterlimit:4;stroke-dasharray:none"
             id="path3765"
             inkscape:connector-curvature="0" /></g><g
           id="g3767"
           transform="translate(136.0859,54.5796)"
           style="fill:#f9f9f9;stroke:#000000;stroke-width:0.17475;stroke-miterlimit:4;stroke-dasharray:none"><path
             d="m 0,0 c -0.717,-0.659 -1.547,-1.404 -1.891,-2.263 1.461,0.285 2.952,-0.23 3.811,-1.405 0.287,-0.974 -0.43,-1.749 -0.975,-2.494 -0.974,-1.232 -2.377,-1.662 -3.638,-2.322 -0.832,-0.258 -1.635,-0.658 -2.495,-0.744 2.065,1.316 5.159,2.98 5.59,5.79 -0.945,0.028 -1.75,-0.517 -2.666,-0.661 -0.687,0.259 -0.974,1.004 -1.375,1.52 0.084,1.576 0.916,2.923 2.063,3.983 L 0.029,0.373 Z"
             style="fill:#f9f9f9;fill-opacity:1;fill-rule:nonzero;stroke:#000000;stroke-width:0.17475;stroke-miterlimit:4;stroke-dasharray:none"
             id="path3769"
             inkscape:connector-curvature="0" /></g><g
           id="g3771"
           transform="translate(144.1113,54.7227)"
           style="fill:#f9f9f9;stroke:#000000;stroke-width:0.17475;stroke-miterlimit:4;stroke-dasharray:none"><path
             d="m 0,0 c -1.377,-0.114 -2.693,-0.573 -3.555,-1.719 l -0.228,-3.124 c 1.146,1.261 2.637,2.465 3.496,3.869 C -0.199,-0.658 0.143,-0.344 0,0 M 1.434,-0.257 C 1.605,-0.831 1.176,-1.289 0.889,-1.719 -0.658,-3.468 -2.406,-4.9 -3.984,-6.621 l -0.803,-6.619 c -0.113,-0.259 -0.17,-0.631 -0.486,-0.66 -0.516,0.057 -0.946,0.487 -1.262,0.918 0.545,3.352 0.717,6.878 1.06,10.317 l -0.687,0.43 0.803,0.832 c 0.056,0.486 0.142,1.031 0.056,1.575 0.459,0.115 1.262,0.258 1.664,-0.172 1.461,0.803 3.84,1.232 5.073,-0.257"
             style="fill:#f9f9f9;fill-opacity:1;fill-rule:nonzero;stroke:#000000;stroke-width:0.17475;stroke-miterlimit:4;stroke-dasharray:none"
             id="path3773"
             inkscape:connector-curvature="0" /></g><g
           id="g3775"
           transform="translate(156.9063,54.3086)"
           style="fill:#f9f9f9;stroke:#000000;stroke-width:0.17475;stroke-miterlimit:4;stroke-dasharray:none"><path
             d="m 0,0 c 0.266,-0.44 -0.139,-0.787 -0.436,-1.04 -1.502,-1.383 -2.568,-3.19 -2.763,-5.103 0.963,1.282 1.595,2.741 2.617,4.028 0.072,0.206 -0.254,0.324 -0.01,0.488 0.461,0.006 1.051,0.168 1.447,-0.118 -0.529,-2.054 -0.271,-4.622 0.487,-6.603 -0.158,-0.185 -0.348,0.03 -0.524,0.075 -1.006,1.099 -1.293,2.573 -1.496,4.08 -0.615,-1.341 -1.342,-2.721 -2.187,-4.023 -0.645,-0.596 -1.125,0.402 -1.686,0.588 -0.611,1.937 0.619,3.497 1.09,5.202 0.443,0.954 0.947,1.885 1.565,2.795 0.466,0.267 1.035,-0.005 1.527,-0.053 z"
             style="fill:#f9f9f9;fill-opacity:1;fill-rule:nonzero;stroke:#000000;stroke-width:0.17475;stroke-miterlimit:4;stroke-dasharray:none"
             id="path3777"
             inkscape:connector-curvature="0" /></g><g
           id="g3779"
           transform="translate(130.6699,54.0928)"
           style="fill:#f9f9f9;stroke:#000000;stroke-width:0.17475;stroke-miterlimit:4;stroke-dasharray:none"><path
             d="M 0,0 C -1.463,-1.776 -2.064,-4.042 -2.293,-6.191 -0.918,-4.386 -0.66,-2.092 0,0 m -10.004,5.302 c 0.145,-1.948 -0.4,-3.955 -0.201,-6.075 1.119,0.057 2.209,0.4 3.297,0.601 l 0.115,5.531 c 0.027,0.144 -0.287,0.373 0,0.345 0.572,-0.23 1.262,-0.316 1.605,-0.918 0.172,-1.49 -0.029,-3.067 0.028,-4.5 1.062,0.087 2.15,0.344 3.181,0.573 0.258,0.316 0.688,0.574 1.061,0.316 C -0.346,1.347 0.373,1.29 0.973,1.204 1.461,1.002 1.375,0.373 1.289,-0.028 0.516,-1.949 0.916,-4.356 -0.115,-6.162 -0.66,-6.965 -0.775,-8.083 -1.777,-8.57 c -0.889,-0.171 -1.547,0.458 -2.293,0.66 -0.803,0.945 -0.258,2.348 -0.086,3.41 0.343,1.261 0.802,2.465 1.203,3.727 -0.688,-0.202 -1.434,-0.459 -2.149,-0.66 -0.201,-3.382 0.372,-7.252 -1.031,-10.175 l -0.144,-0.143 -0.086,0.086 c -0.03,3.324 -0.287,6.562 -0.43,9.859 -1.119,-0.172 -2.264,-0.486 -3.381,-0.802 -0.115,-1.289 -0.051,-3.865 -0.597,-4.983 -0.143,-0.172 -0.401,-0.142 -0.428,0.115 -0.145,1.118 -0.065,3.521 -0.209,4.667 -1.863,-0.43 -4.67,-1.146 -6.133,0.66 l 0.057,0.171 c 0.43,-0.343 1.117,-0.373 1.662,-0.257 l 4.386,1.06 0.057,0.315 0.115,6.621 c 0.487,0 1.059,0.057 1.26,-0.459"
             style="fill:#f9f9f9;fill-opacity:1;fill-rule:nonzero;stroke:#000000;stroke-width:0.17475;stroke-miterlimit:4;stroke-dasharray:none"
             id="path3781"
             inkscape:connector-curvature="0" /></g><g
           id="g3783"
           transform="translate(181.2168,54.3301)"
           style="fill:#f9f9f9;stroke:#000000;stroke-width:0.17475;stroke-miterlimit:4;stroke-dasharray:none"><path
             d="m 0,0 c -0.248,-0.672 -0.984,-0.675 -1.289,-1.299 -0.744,-0.957 -1.318,-1.955 -1.672,-3.017 1.684,-0.28 3.436,-0.743 4.584,-2.178 0.215,-0.338 0.148,-0.861 0.066,-1.221 -2.507,-2.431 -5.617,-3.789 -8.732,-5.067 -2.459,-0.954 -5.02,-1.671 -7.477,-2.654 -1.207,-0.257 -2.554,-0.443 -3.685,-0.967 -0.26,0.171 -0.484,-0.091 -0.723,-0.165 5.385,2.572 11.186,4.358 16.149,7.797 0.982,0.702 2.082,1.606 2.648,2.74 -0.818,0.726 -2.008,0.606 -2.994,0.666 -0.367,0.515 -1.242,0.91 -1.029,1.664 0.886,1.568 1.595,3.311 3.052,4.542 C -0.824,0.427 -0.324,0.302 0,0"
             style="fill:#f9f9f9;fill-opacity:1;fill-rule:nonzero;stroke:#000000;stroke-width:0.17475;stroke-miterlimit:4;stroke-dasharray:none"
             id="path3785"
             inkscape:connector-curvature="0" /></g><g
           id="g3787"
           transform="translate(179.0918,54.75)"
           style="fill:#f9f9f9;stroke:#000000;stroke-width:0.17475;stroke-miterlimit:4;stroke-dasharray:none"><path
             d="m 0,0 -0.066,-0.264 c -1.539,-0.896 -3.413,-1.588 -4.34,-3.327 -0.153,-1.737 -0.367,-3.422 -0.873,-5.042 -0.117,-0.353 -0.5,-0.24 -0.713,-0.084 l -0.74,0.66 c 0.613,2.436 0.203,5.135 0.382,7.649 -0.062,0.053 -0.068,0.11 -0.127,0.133 0.664,-0.034 1.51,-0.198 1.991,-0.822 l 0.213,-0.529 c 1.002,0.796 2.148,1.23 3.181,1.972 C -0.736,0.23 -0.285,0.323 0,0"
             style="fill:#f9f9f9;fill-opacity:1;fill-rule:nonzero;stroke:#000000;stroke-width:0.17475;stroke-miterlimit:4;stroke-dasharray:none"
             id="path3789"
             inkscape:connector-curvature="0" /></g><g
           id="g3791"
           transform="translate(165.0098,53.5898)"
           style="fill:#f9f9f9;stroke:#000000;stroke-width:0.17475;stroke-miterlimit:4;stroke-dasharray:none"><path
             d="m 0,0 c 0.545,-1.453 0.092,-3.011 0.004,-4.484 -0.225,-0.793 0.322,-1.931 -0.44,-2.478 -0.425,-0.062 -0.736,0.231 -1.041,0.464 l -0.144,0.363 0.027,6.299 C -1.109,0.229 -0.414,0.542 0,0"
             style="fill:#f9f9f9;fill-opacity:1;fill-rule:nonzero;stroke:#000000;stroke-width:0.17475;stroke-miterlimit:4;stroke-dasharray:none"
             id="path3793"
             inkscape:connector-curvature="0" /></g><g
           id="g3795"
           transform="translate(169.6523,53.7559)"
           style="fill:#f9f9f9;stroke:#000000;stroke-width:0.17475;stroke-miterlimit:4;stroke-dasharray:none"><path
             d="m 0,0 c -0.902,-0.587 -1.311,-1.625 -1.586,-2.508 0.846,0.582 1.818,1.377 2.055,2.401 C 0.344,0.027 0.172,0.013 0,0 M 1.893,0.809 C 2.072,0.334 1.863,-0.286 1.699,-0.758 1.283,-1.71 0.723,-2.99 -0.371,-3.363 c -0.516,-0.385 -1.567,0.195 -1.609,-0.729 -0.186,-0.934 -0.166,-2.283 0.714,-2.906 1.543,0.494 2.85,1.804 3.717,3.223 L 2.586,-3.68 C 2.365,-5.248 1.807,-6.961 0.193,-7.66 c -0.832,-0.382 -1.714,-0.106 -2.382,0.359 -1.483,0.949 -1.239,2.953 -0.977,4.409 l -0.154,0.132 0.201,0.016 c 0.406,1.412 0.99,2.78 2.105,3.959 C -0.084,1.086 1,1.199 1.893,0.809"
             style="fill:#f9f9f9;fill-opacity:1;fill-rule:nonzero;stroke:#000000;stroke-width:0.17475;stroke-miterlimit:4;stroke-dasharray:none"
             id="path3797"
             inkscape:connector-curvature="0" /></g><g
           id="g3799"
           transform="translate(110.2324,53.7109)"
           style="fill:#f9f9f9;stroke:#000000;stroke-width:0.17475;stroke-miterlimit:4;stroke-dasharray:none"><path
             d="m 0,0 c -0.668,-0.762 -1.201,-1.811 -1.387,-2.831 l 0.038,-0.133 c 0.967,-0.188 2.151,-0.712 2.583,-1.653 -0.155,-2.645 -1.524,-5.041 -3.448,-6.996 -1.355,-0.985 -2.781,-1.457 -4.473,-1.981 -0.514,-0.016 -1.042,-0.197 -1.447,0.094 2.72,0.259 4.689,2 6.466,4.078 0.982,1.548 1.6,3.203 1.27,5.182 -0.45,0.179 -0.832,0.527 -1.372,0.481 -0.334,0.107 -0.525,0.444 -0.688,0.756 -0.056,1.297 0.601,2.52 1.324,3.586 C -0.695,0.538 -0.343,0.216 0,0"
             style="fill:#f9f9f9;fill-opacity:1;fill-rule:nonzero;stroke:#000000;stroke-width:0.17475;stroke-miterlimit:4;stroke-dasharray:none"
             id="path3801"
             inkscape:connector-curvature="0" /></g><g
           id="g3803"
           transform="translate(100.4331,52.4473)"
           style="fill:#f9f9f9;stroke:#000000;stroke-width:0.17475;stroke-miterlimit:4;stroke-dasharray:none"><path
             d="M 0,0 -0.591,-0.789 C -1.45,-2.47 -2.657,-4.102 -2.492,-6.038 -1.202,-4.162 -0.566,-2.025 0,0 M 1.373,6.181 C 1.456,4.896 1.273,3.641 1.357,2.331 1.298,-0.997 1.871,-4.322 2.456,-7.489 2.443,-7.648 2.405,-7.811 2.224,-7.852 1.905,-7.826 1.599,-7.641 1.518,-7.307 0.82,-5.309 0.503,-3.121 0.209,-0.905 0.013,-1.08 0.187,-1.567 0.052,-1.841 c -0.284,-1.633 -0.757,-3.202 -1.42,-4.708 -0.176,-0.411 -0.578,-0.656 -1.029,-0.614 -0.458,0.118 -0.978,0.364 -1.28,0.813 -0.788,2.122 0.666,3.932 1.514,5.746 0.563,0.811 1.277,1.715 2.076,2.258 L 0.101,1.617 C 0.086,3.329 0.154,5.022 0.197,6.686 0.648,6.646 1.2,6.667 1.373,6.181"
             style="fill:#f9f9f9;fill-opacity:1;fill-rule:nonzero;stroke:#000000;stroke-width:0.17475;stroke-miterlimit:4;stroke-dasharray:none"
             id="path3805"
             inkscape:connector-curvature="0" /></g><g
           id="g3807"
           transform="translate(105.6445,52.9253)"
           style="fill:#f9f9f9;stroke:#000000;stroke-width:0.17475;stroke-miterlimit:4;stroke-dasharray:none"><path
             d="m 0,0 c -0.743,-0.514 -1.076,-1.425 -1.3,-2.203 0.695,0.51 1.496,1.205 1.687,2.107 C 0.284,0.022 0.141,0.012 0,0 M 1.56,0.704 C 1.71,0.285 1.539,-0.259 1.406,-0.675 1.067,-1.512 0.609,-2.636 -0.292,-2.96 c -0.425,-0.337 -1.296,0.177 -1.326,-0.635 -0.15,-0.822 -0.13,-2.01 0.6,-2.562 1.273,0.429 2.348,1.576 3.057,2.821 l 0.112,0.085 c -0.177,-1.381 -0.63,-2.885 -1.958,-3.496 -0.686,-0.331 -1.418,-0.086 -1.972,0.328 -1.229,0.841 -1.034,2.603 -0.825,3.886 l -0.127,0.117 0.165,0.013 c 0.331,1.241 0.806,2.445 1.722,3.478 C -0.075,0.957 0.82,1.052 1.56,0.704"
             style="fill:#f9f9f9;fill-opacity:1;fill-rule:nonzero;stroke:#000000;stroke-width:0.17475;stroke-miterlimit:4;stroke-dasharray:none"
             id="path3809"
             inkscape:connector-curvature="0" /></g></g></g></g></svg>